HIERARCHY
ROOT hips_JNT
{
  OFFSET 0.0 -0.948831 1.32574
  CHANNELS 6 Xposition Yposition Zposition Zrotation Xrotation Yrotation
  JOINT spine_JNT
  {
    OFFSET -0.0 4.130377 -0.008512
    CHANNELS 6 Xposition Yposition Zposition Zrotation Xrotation Yrotation
    JOINT spine1_JNT
    {
      OFFSET 0.0 10.693995 -0.005569
      CHANNELS 6 Xposition Yposition Zposition Zrotation Xrotation Yrotation
      JOINT spine2_JNT
      {
        OFFSET 0.0 10.15321 -0.012624
        CHANNELS 6 Xposition Yposition Zposition Zrotation Xrotation Yrotation
        JOINT l_shoulder_JNT
        {
          OFFSET 2.886656 12.539124 -0.534975
          CHANNELS 6 Xposition Yposition Zposition Zrotation Xrotation Yrotation
          JOINT l_arm_JNT
          {
            OFFSET 10.265332 4.1e-05 2.1e-05
            CHANNELS 6 Xposition Yposition Zposition Zrotation Xrotation Yrotation
            JOINT l_forearm_JNT
            {
              OFFSET 25.57288 -1.8e-05 7e-06
              CHANNELS 6 Xposition Yposition Zposition Zrotation Xrotation Yrotation
              JOINT l_hand_JNT
              {
                OFFSET 19.806801 -0.34569 0.001304
                CHANNELS 6 Xposition Yposition Zposition Zrotation Xrotation Yrotation
                JOINT l_handThumb1_JNT
                {
                  OFFSET 1.812945 -1.252032 3.615279
                  CHANNELS 6 Xposition Yposition Zposition Zrotation Xrotation Yrotation
                  JOINT l_handThumb2_JNT
                  {
                    OFFSET 2.639236 -0.023626 -0.053101
                    CHANNELS 6 Xposition Yposition Zposition Zrotation Xrotation Yrotation
                    JOINT l_handThumb3_JNT
                    {
                      OFFSET 2.817294 0.161943 -1.4e-05
                      CHANNELS 6 Xposition Yposition Zposition Zrotation Xrotation Yrotation
                      JOINT l_handThumb4_JNT
                      {
                        OFFSET 3.923262 -2e-06 -2e-05
                        CHANNELS 6 Xposition Yposition Zposition Zrotation Xrotation Yrotation
                        End Site
                        {
                          OFFSET 0 0 0
                        }
                      }
                    }
                  }
                }
                JOINT l_handIndex1_JNT
                {
                  OFFSET 8.246993 -0.097602 3.7486
                  CHANNELS 6 Xposition Yposition Zposition Zrotation Xrotation Yrotation
                  JOINT l_handIndex2_JNT
                  {
                    OFFSET 3.896266 0.286873 -7e-06
                    CHANNELS 6 Xposition Yposition Zposition Zrotation Xrotation Yrotation
                    JOINT l_handIndex3_JNT
                    {
                      OFFSET 2.318423 0.158307 -2e-06
                      CHANNELS 6 Xposition Yposition Zposition Zrotation Xrotation Yrotation
                      JOINT l_handIndex4_JNT
                      {
                        OFFSET 2.566021 -2.8e-05 1.3e-05
                        CHANNELS 6 Xposition Yposition Zposition Zrotation Xrotation Yrotation
                        End Site
                        {
                          OFFSET 0 0 0
                        }
                      }
                    }
                  }
                }
                JOINT l_handPinky1_JNT
                {
                  OFFSET 7.375721 -0.989719 -3.362721
                  CHANNELS 6 Xposition Yposition Zposition Zrotation Xrotation Yrotation
                  JOINT l_handPinky2_JNT
                  {
                    OFFSET 2.923455 0.065761 4e-06
                    CHANNELS 6 Xposition Yposition Zposition Zrotation Xrotation Yrotation
                    JOINT l_handPinky3_JNT
                    {
                      OFFSET 1.903048 -0.013625 2e-06
                      CHANNELS 6 Xposition Yposition Zposition Zrotation Xrotation Yrotation
                      JOINT l_handPinky4_JNT
                      {
                        OFFSET 2.825697 -4e-06 7e-06
                        CHANNELS 6 Xposition Yposition Zposition Zrotation Xrotation Yrotation
                        End Site
                        {
                          OFFSET 0 0 0
                        }
                      }
                    }
                  }
                }
                JOINT l_handRing1_JNT
                {
                  OFFSET 8.765368 -0.298583 -1.407509
                  CHANNELS 6 Xposition Yposition Zposition Zrotation Xrotation Yrotation
                  JOINT l_handRing2_JNT
                  {
                    OFFSET 3.670795 0.003695 3e-06
                    CHANNELS 6 Xposition Yposition Zposition Zrotation Xrotation Yrotation
                    JOINT l_handRing3_JNT
                    {
                      OFFSET 2.391654 0.005744 -0.0
                      CHANNELS 6 Xposition Yposition Zposition Zrotation Xrotation Yrotation
                      JOINT l_handRing4_JNT
                      {
                        OFFSET 2.882435 9e-06 -0.0
                        CHANNELS 6 Xposition Yposition Zposition Zrotation Xrotation Yrotation
                        End Site
                        {
                          OFFSET 0 0 0
                        }
                      }
                    }
                  }
                }
                JOINT l_handMiddle1_JNT
                {
                  OFFSET 9.042173 0.054553 1.280481
                  CHANNELS 6 Xposition Yposition Zposition Zrotation Xrotation Yrotation
                  JOINT l_handMiddle2_JNT
                  {
                    OFFSET 3.918026 0.055927 -2e-06
                    CHANNELS 6 Xposition Yposition Zposition Zrotation Xrotation Yrotation
                    JOINT l_handMiddle3_JNT
                    {
                      OFFSET 2.517175 0.019618 -2e-06
                      CHANNELS 6 Xposition Yposition Zposition Zrotation Xrotation Yrotation
                      JOINT l_handMiddle4_JNT
                      {
                        OFFSET 3.281315 -4e-06 6e-06
                        CHANNELS 6 Xposition Yposition Zposition Zrotation Xrotation Yrotation
                        End Site
                        {
                          OFFSET 0 0 0
                        }
                      }
                    }
                  }
                }
              }
            }
          }
        }
        JOINT r_shoulder_JNT
        {
          OFFSET -2.886765 12.539101 -0.53497
          CHANNELS 6 Xposition Yposition Zposition Zrotation Xrotation Yrotation
          JOINT r_arm_JNT
          {
            OFFSET -10.265315 -5.6e-05 -2.2e-05
            CHANNELS 6 Xposition Yposition Zposition Zrotation Xrotation Yrotation
            JOINT r_forearm_JNT
            {
              OFFSET -25.572863 -1e-06 -1e-05
              CHANNELS 6 Xposition Yposition Zposition Zrotation Xrotation Yrotation
              JOINT r_hand_JNT
              {
                OFFSET -19.806995 -0.345992 0.000439
                CHANNELS 6 Xposition Yposition Zposition Zrotation Xrotation Yrotation
                JOINT r_handThumb1_JNT
                {
                  OFFSET -1.817488 -1.260979 3.617093
                  CHANNELS 6 Xposition Yposition Zposition Zrotation Xrotation Yrotation
                  JOINT r_handThumb2_JNT
                  {
                    OFFSET -2.639243 -0.023613 -0.053149
                    CHANNELS 6 Xposition Yposition Zposition Zrotation Xrotation Yrotation
                    JOINT r_handThumb3_JNT
                    {
                      OFFSET -2.69898 -0.823877 3.2e-05
                      CHANNELS 6 Xposition Yposition Zposition Zrotation Xrotation Yrotation
                      JOINT r_handThumb4_JNT
                      {
                        OFFSET -3.875298 -0.61178 -2.5e-05
                        CHANNELS 6 Xposition Yposition Zposition Zrotation Xrotation Yrotation
                        End Site
                        {
                          OFFSET 0 0 0
                        }
                      }
                    }
                  }
                }
                JOINT r_handRing1_JNT
                {
                  OFFSET -8.770375 -0.316069 -1.406742
                  CHANNELS 6 Xposition Yposition Zposition Zrotation Xrotation Yrotation
                  JOINT r_handRing2_JNT
                  {
                    OFFSET -3.670815 0.00367 1.4e-05
                    CHANNELS 6 Xposition Yposition Zposition Zrotation Xrotation Yrotation
                    JOINT r_handRing3_JNT
                    {
                      OFFSET -2.391656 0.005687 -4e-06
                      CHANNELS 6 Xposition Yposition Zposition Zrotation Xrotation Yrotation
                      JOINT r_handRing4_JNT
                      {
                        OFFSET -2.882458 2.6e-05 4e-06
                        CHANNELS 6 Xposition Yposition Zposition Zrotation Xrotation Yrotation
                        End Site
                        {
                          OFFSET 0 0 0
                        }
                      }
                    }
                  }
                }
                JOINT r_handPinky1_JNT
                {
                  OFFSET -7.380617 -1.009365 -3.361093
                  CHANNELS 6 Xposition Yposition Zposition Zrotation Xrotation Yrotation
                  JOINT r_handPinky2_JNT
                  {
                    OFFSET -2.923381 0.065775 -1.6e-05
                    CHANNELS 6 Xposition Yposition Zposition Zrotation Xrotation Yrotation
                    JOINT r_handPinky3_JNT
                    {
                      OFFSET -1.903114 -0.013699 2e-06
                      CHANNELS 6 Xposition Yposition Zposition Zrotation Xrotation Yrotation
                      JOINT r_handPinky4_JNT
                      {
                        OFFSET -2.82564 6.6e-05 2.2e-05
                        CHANNELS 6 Xposition Yposition Zposition Zrotation Xrotation Yrotation
                        End Site
                        {
                          OFFSET 0 0 0
                        }
                      }
                    }
                  }
                }
                JOINT r_handMiddle1_JNT
                {
                  OFFSET -9.04719 0.04041 1.28081
                  CHANNELS 6 Xposition Yposition Zposition Zrotation Xrotation Yrotation
                  JOINT r_handMiddle2_JNT
                  {
                    OFFSET -3.918018 0.058123 -0.000248
                    CHANNELS 6 Xposition Yposition Zposition Zrotation Xrotation Yrotation
                    JOINT r_handMiddle3_JNT
                    {
                      OFFSET -2.517177 0.020923 -0.000345
                      CHANNELS 6 Xposition Yposition Zposition Zrotation Xrotation Yrotation
                      JOINT r_handMiddle4_JNT
                      {
                        OFFSET -3.281001 6.3e-05 -1e-06
                        CHANNELS 6 Xposition Yposition Zposition Zrotation Xrotation Yrotation
                        End Site
                        {
                          OFFSET 0 0 0
                        }
                      }
                    }
                  }
                }
                JOINT r_handIndex1_JNT
                {
                  OFFSET -8.25189 -0.10834 3.749102
                  CHANNELS 6 Xposition Yposition Zposition Zrotation Xrotation Yrotation
                  JOINT r_handIndex2_JNT
                  {
                    OFFSET -3.896148 0.288499 -0.000465
                    CHANNELS 6 Xposition Yposition Zposition Zrotation Xrotation Yrotation
                    JOINT r_handIndex3_JNT
                    {
                      OFFSET -2.318387 0.159238 -0.000487
                      CHANNELS 6 Xposition Yposition Zposition Zrotation Xrotation Yrotation
                      JOINT r_handIndex4_JNT
                      {
                        OFFSET -2.565998 -9e-06 -2e-06
                        CHANNELS 6 Xposition Yposition Zposition Zrotation Xrotation Yrotation
                        End Site
                        {
                          OFFSET 0 0 0
                        }
                      }
                    }
                  }
                }
              }
            }
          }
        }
        JOINT neck_JNT
        {
          OFFSET 0.0 17.065636 0.263756
          CHANNELS 6 Xposition Yposition Zposition Zrotation Xrotation Yrotation
          JOINT head_JNT
          {
            OFFSET -2e-06 8.137567 0.007748
            CHANNELS 6 Xposition Yposition Zposition Zrotation Xrotation Yrotation
            JOINT headtop_End_JNT
            {
              OFFSET 1e-06 29.371323 3.603611
              CHANNELS 6 Xposition Yposition Zposition Zrotation Xrotation Yrotation
              End Site
              {
                OFFSET 0 0 0
              }
            }
            JOINT l_eye_LOC
            {
              OFFSET 5.1001 12.306631 9.664177
              CHANNELS 6 Xposition Yposition Zposition Zrotation Xrotation Yrotation
              JOINT l_eye_JNT
              {
                OFFSET 0.0 -0.0 0.0
                CHANNELS 6 Xposition Yposition Zposition Zrotation Xrotation Yrotation
                End Site
                {
                  OFFSET 0 0 0
                }
              }
            }
            JOINT r_eye_LOC
            {
              OFFSET -5.099901 12.306608 9.664177
              CHANNELS 6 Xposition Yposition Zposition Zrotation Xrotation Yrotation
              JOINT r_eye_JNT
              {
                OFFSET -0.0 2e-06 0.0
                CHANNELS 6 Xposition Yposition Zposition Zrotation Xrotation Yrotation
                End Site
                {
                  OFFSET 0 0 0
                }
              }
            }
          }
        }
      }
    }
  }
  JOINT r_upleg_JNT
  {
    OFFSET -7.515902 1.7e-05 8e-06
    CHANNELS 6 Xposition Yposition Zposition Zrotation Xrotation Yrotation
    JOINT r_leg_JNT
    {
      OFFSET -0.724048 -37.736351 0.184438
      CHANNELS 6 Xposition Yposition Zposition Zrotation Xrotation Yrotation
      JOINT r_foot_JNT
      {
        OFFSET 0.000135 -34.575272 -2.7e-05
        CHANNELS 6 Xposition Yposition Zposition Zrotation Xrotation Yrotation
        JOINT r_toebase_JNT
        {
          OFFSET 6e-06 -6.104936 11.161947
          CHANNELS 6 Xposition Yposition Zposition Zrotation Xrotation Yrotation
          End Site
          {
            OFFSET 0 0 0
          }
        }
      }
    }
  }
  JOINT l_upleg_JNT
  {
    OFFSET 7.515905 2e-06 -7e-06
    CHANNELS 6 Xposition Yposition Zposition Zrotation Xrotation Yrotation
    JOINT l_leg_JNT
    {
      OFFSET 0.000241 -37.743698 0.013164
      CHANNELS 6 Xposition Yposition Zposition Zrotation Xrotation Yrotation
      JOINT l_foot_JNT
      {
        OFFSET 5.9e-05 -34.575218 -3.6e-05
        CHANNELS 6 Xposition Yposition Zposition Zrotation Xrotation Yrotation
        JOINT l_toebase_JNT
        {
          OFFSET 1e-06 -6.104953 11.161938
          CHANNELS 6 Xposition Yposition Zposition Zrotation Xrotation Yrotation
          End Site
          {
            OFFSET 0 0 0
          }
        }
      }
    }
  }
}
MOTION
Frames:	2
Frame Time:	0.0333333
1.283046 -1.648981 -8.45214 -3.27528726242 19.022155232 -20.9824821397 3e-06 4.130375 -0.008511 0.734077771205 5.15536234179 -0.505516389735 0.0 10.693992 -0.005567 1.50082445743 10.4570847285 -1.12324282072 1e-06 10.153214 -0.012619 1.38690478279 6.49102932836 -1.15839224979 2.886657 12.539139 -0.534979 33.7733437997 -3.84875278758 -7.7181687807 10.265333 3.7e-05 2e-05 -24.5573207579 79.2030573199 -43.1672289003 25.572874 -6e-06 -1e-06 0.0220670525382 0.00569603103788 -75.5485316772 19.806816 -0.345726 -0.001545 51.859635103 5.94444435578 -34.4415816347 1.812943 -1.25203 3.615284 11.8733141922 17.5630988435 -104.437026398 2.639229 -0.023632 -0.053103 -21.6736958265 -1.45107343815 9.34223421218 2.817295 0.161941 -1.6e-05 1.68362888023 0.283544133195 3.06393969396 3.923257 -1e-06 -1.9e-05 6.17590867836e-06 2.14884094021e-05 3.41834747815e-05 8.246999 -0.097603 3.748599 -10.0700862454 6.54631781295 2.26112036351 3.896264 0.286873 -5e-06 -9.39352416936 4.2070008927e-05 -0.00076560548041 2.318424 0.158304 -3e-06 2.29888725278 6.8190056481e-06 0.000207826800761 2.566029 -2.7e-05 8e-06 6.24969416584e-05 1.38651394082e-05 2.23477309191e-05 7.375724 -0.989726 -3.36273 -41.5232607911 -20.891343635 -4.27655851451 2.923453 0.065759 7e-06 -27.3042602888 -1.63357449279 8.12867978811 1.903051 -0.013625 5e-06 -23.2862881304 -1.67636196618 8.03216116272 2.825698 -9e-06 8e-06 -23.5181933904 -1.67624788127 8.031860153 8.765371 -0.298586 -1.407514 -46.925236512 -10.3921158444 -6.1162187663 3.670796 0.003691 3e-06 -14.8852592491 -0.372603501169 2.44877632033 2.391655 0.005744 -3e-06 -8.95660084726 -0.261663982647 2.02043376183 2.882435 1e-05 -2e-06 -14.858229827 -0.260330733461 2.01284698999 9.042174 0.054554 1.280482 -18.6681709793 -3.78804492831 -0.0610906783853 3.918029 0.055926 -5e-06 -20.3146754839 0.0416904866307 -0.441469339178 2.517177 0.019618 3e-06 -2.90692281425 0.0294192109663 -0.321322483459 3.28132 -4e-06 -3e-06 -9.99471766923 0.0295788912514 -0.321291310686 -2.886768 12.539116 -0.534976 -35.8615482168 -2.07085261534 -5.98103127632 -10.265331 -6.1e-05 -1.4e-05 55.4560397301 82.6344393265 12.2351689154 -25.57291 -0.0 -2.9e-05 -0.0226219821476 0.00415376397589 79.5912788958 -19.807009 -0.346007 -0.015306 -54.7737628871 5.08201146514 34.2025397666 -1.817486 -1.260977 3.61709 -11.9208245106 17.5520756721 104.487995849 -2.639245 -0.023614 -0.053153 1.65824686663 1.82482088376 -9.29868474576 -2.698978 -0.82388 3e-05 9.6178916544 0.745226938589 -2.99207794349 -3.8753 -0.611781 -2.1e-05 4.86980717614e-05 -3.62169521395e-05 -5.53681411475e-06 -8.77037 -0.316066 -1.40674 46.9374789182 -10.3967934509 6.18346726904 -3.670817 0.003669 1.4e-05 14.8885682316 -0.369471583701 -2.42629616585 -2.391655 0.005684 -2e-06 8.95973464962 -0.261042962677 -1.99993350418 -2.882461 2.8e-05 2e-06 14.8610415609 -0.259812454654 -1.99242602659 -7.380622 -1.009369 -3.361102 41.5167312039 -20.8620993702 4.33771562765 -2.923373 0.065773 -1.4e-05 27.322317024 -1.62324128972 -8.08113302867 -1.90311 -0.013698 0.0 23.3047352642 -1.66610567007 -7.9842910987 -2.82564 5.9e-05 2.4e-05 23.5363529917 -1.66593050637 -7.98393594134 -9.047193 0.040407 1.280806 18.7202488407 -3.88704061782 0.100469641231 -3.918016 0.058122 -0.000246 20.3145241174 0.041706437369 0.44486296042 -2.517173 0.020926 -0.000343 2.90688781058 0.0283230340383 0.32450599463 -3.281004 6e-05 -0.0 9.99463727025 0.0284953334053 0.324504683811 -8.251891 -0.108342 3.749098 10.1124481865 6.38675433652 -2.23531900736 -3.89614 0.288505 -0.000463 9.3935842525 -7.67284654934e-05 0.00081944349222 -2.318391 0.159236 -0.000489 -2.29890537185 0.000207490505998 -0.000212244369324 -2.565998 -5e-06 -1e-06 -4.08225025208e-05 2.47066200245e-05 -5.02053153468e-05 -2e-05 17.065887 0.263812 -10.2617042183 34.3323742046 12.0257538702 -8e-06 8.137594 0.007791 -7.92589753398 -57.1672767568 4.05195703622 1e-06 29.371323 3.603611 -2.11243300823e-07 5.2964015007 2.28846022158e-06 5.1001 12.306631 9.664177 -0.00025564253 0.58690121 -0.0 0.0 -0.0 0.0 0.225965452645 -0.763031842683 16.4967536749 -5.099901 12.306608 9.664177 -0.00025564253 0.58690121 -0.0 -0.0 2e-06 0.0 0.225965452645 -0.763031842683 16.4967536749 -7.515921 1.7e-05 6e-06 10.7005683763 -34.6178609981 3.91071508334 -0.723975 -37.736462 0.18404 -0.0864493731224 19.470579333 -10.1790739407 0.000125 -34.575329 -3.3e-05 1.04454151085 -1.15541803915 -8.69024381578 1.1e-05 -6.104936 11.161975 0.79811272622 0.278313248252 -0.00508744823312 7.515919 2e-06 -1.1e-05 32.4733146314 -46.5186543781 36.8649162613 0.001054 -37.743721 0.01307 3.59081031639 52.1288511312 8.04924435704 5.5e-05 -34.575382 -5.3e-05 -4.97519972602 10.1798825054 10.2695300844 1e-06 -6.104963 11.161955 -7.64351375571 -28.4716825909 -2.26205590726 
1.494016 -1.980775 -8.578013 -4.36655072946 20.1103585112 -24.0720547964 4e-06 4.130374 -0.008505 1.19437510062 4.90654776802 -0.659586304813 -0.0 10.693994 -0.005568 2.43102687641 9.95077581398 -1.49508908284 1e-06 10.153214 -0.012622 2.28027680094 5.98455578014 -1.55903276418 2.886657 12.539135 -0.534974 32.2781129755 -3.8570874162 -8.46098559764 10.265328 3.5e-05 1.7e-05 -32.8466309498 79.5489987711 -35.6957150225 25.572905 -1.4e-05 1e-06 0.0217659516563 0.00675595488412 -72.778138492 19.806826 -0.345714 -0.001373 51.5196753071 3.80795070093 -36.4729916312 1.812946 -1.252032 3.615281 11.8733328263 17.5631066475 -104.437041462 2.639235 -0.023624 -0.053102 -21.6737040715 -1.45107962874 9.34224473186 2.817296 0.161939 -1.5e-05 1.6836238437 0.283544489743 3.06394183985 3.92326 3e-06 -2.1e-05 7.24145322106e-06 2.45029241341e-05 1.37840561365e-05 8.246997 -0.0976 3.748608 -10.0700787145 6.54632636143 2.26112664187 3.896266 0.28687 -4e-06 -9.39352321549 5.62029417728e-05 -0.000769063364715 2.318427 0.158304 -3e-06 2.29888963699 1.44788941724e-06 0.000206168391742 2.566031 -3.1e-05 1e-06 5.5600185951e-05 1.47003811435e-05 1.7867254428e-05 7.375721 -0.989721 -3.36272 -41.5232520821 -20.8913251167 -4.27653781834 2.923457 0.065761 1e-06 -27.3042644975 -1.63358896787 8.12866076567 1.903052 -0.013626 -0.0 -23.2862806731 -1.67636054576 8.03216211094 2.825698 -9e-06 9e-06 -23.5181887446 -1.67625679331 8.03184587844 8.765368 -0.298584 -1.407508 -46.925248743 -10.3921157615 -6.11622312859 3.670795 0.003695 3e-06 -14.8852579986 -0.372611930243 2.44876654731 2.391655 0.005743 -3e-06 -8.95659488519 -0.261672115275 2.02042351104 2.882432 1e-05 0.0 -14.8582321385 -0.260319326329 2.0128462729 9.042171 0.054556 1.280488 -18.6681657303 -3.78803634474 -0.0610979766679 3.918026 0.055927 -6e-06 -20.3146717167 0.041684489101 -0.44146761061 2.517177 0.019616 1e-06 -2.90692347088 0.0294296173996 -0.321322990128 3.281318 -5e-06 3e-06 -9.99472152941 0.0295702803626 -0.321296734685 -2.886768 12.539107 -0.534968 -34.8692879736 -1.95670009906 -5.95363592712 -10.265342 -5.7e-05 -2e-05 55.1867168484 81.5070908327 9.20548211023 -25.572882 4e-06 1e-06 -0.0228550429758 0.0025796979447 83.5559773819 -19.807001 -0.34599 -0.015344 -52.3581465444 8.65236049617 32.4155725668 -1.817488 -1.260981 3.617091 -11.9208148388 17.5520775133 104.487981297 -2.639244 -0.023614 -0.053153 1.6582244769 1.82480367311 -9.29869133517 -2.698979 -0.823876 3.2e-05 9.6178910213 0.745233606667 -2.99207580208 -3.875299 -0.611786 -2.3e-05 5.2782126931e-05 -4.13589914388e-05 -7.18241881259e-06 -8.770374 -0.316065 -1.40674 46.9374726713 -10.3967946694 6.18345323146 -3.670819 0.003671 1.1e-05 14.8885217144 -0.369467506137 -2.42628996572 -2.391653 0.005684 -3e-06 8.95973363468 -0.261045137433 -1.99993028585 -2.882462 2.6e-05 1e-06 14.8610425523 -0.259811650816 -1.99242388067 -7.380616 -1.009365 -3.361089 41.5167205229 -20.8620842839 4.33771008676 -2.923378 0.065776 -1.7e-05 27.3223246852 -1.62324261868 -8.0811254015 -1.903108 -0.013702 8e-06 23.3047223789 -1.66610164263 -7.98429442157 -2.825645 6.8e-05 2.1e-05 23.5363609119 -1.66592994526 -7.98392878341 -9.047191 0.040411 1.280811 18.7202369548 -3.88703179709 0.100463352327 -3.918015 0.058125 -0.000245 20.3145239987 0.0417215392291 0.444864987063 -2.517173 0.020926 -0.000343 2.90687749796 0.0283338781889 0.324504385335 -3.281003 6.1e-05 -1e-06 9.99464114674 0.0284836845857 0.324513088034 -8.251889 -0.108339 3.749103 10.1124394704 6.38673712547 -2.23533236711 -3.896146 0.288504 -0.000462 9.39359760408 -8.70352814585e-05 0.000810350698886 -2.318388 0.159235 -0.000488 -2.29890155714 0.00022102978255 -0.000203285992031 -2.565999 -6e-06 -2e-06 -4.72727322543e-05 2.63393812929e-05 -4.98752160638e-05 -2.2e-05 17.065781 0.263869 -10.3674631878 32.0298771947 13.4595518398 -1e-05 8.137605 0.007776 -9.27019177905 -53.6516132971 6.13105446993 1e-06 29.371323 3.603611 -2.11243300823e-07 5.2964015007 2.28846022158e-06 5.1001 12.306631 9.664177 -0.00025564253 0.58690121 -0.0 0.0 -0.0 0.0 0.224870474233 -0.763355239653 16.4145471535 -5.099901 12.306608 9.664177 -0.00025564253 0.58690121 -0.0 -0.0 2e-06 0.0 0.224870474233 -0.763355239653 16.4145471535 -7.51592 1.5e-05 8e-06 13.1368388678 -34.7244116084 5.32983485789 -0.724023 -37.736412 0.184244 0.896995087222 18.9050547031 -11.9089658801 0.000126 -34.575348 -3e-05 0.429977651619 -0.512780686356 -8.67796061771 -2e-06 -6.104925 11.161953 0.798085403823 0.27840301285 -0.00508097783188 7.515919 5e-06 -9e-06 36.3749592465 -46.0099258977 39.9675636273 0.001003 -37.743671 0.013124 5.1553750904 53.9317018443 7.61839885084 6.1e-05 -34.575397 -4.8e-05 -6.21121356946 7.15716098325 10.2823162672 1e-06 -6.104957 11.161946 -7.26464666774 -28.0648785699 -2.19336167528 
